<?xml version="1.0" encoding="UTF-8"?>
<!DOCTYPE svg PUBLIC "-//W3C//DTD SVG 1.1//EN" "http://www.w3.org/Graphics/SVG/1.1/DTD/svg11.dtd">
<!-- Creator: CorelDRAW X7 -->
<svg xmlns="http://www.w3.org/2000/svg" xml:space="preserve" width="0.833331in" height="0.385417in" version="1.1" style="shape-rendering:geometricPrecision; text-rendering:geometricPrecision; image-rendering:optimizeQuality; fill-rule:evenodd; clip-rule:evenodd"
viewBox="0 0 833 385"
 xmlns:xlink="http://www.w3.org/1999/xlink">
 <defs>
  <style type="text/css">
   <![CDATA[
    .fil3 {fill:#2B2F76}
    .fil0 {fill:#2D3277}
    .fil2 {fill:#FEE600}
    .fil1 {fill:white}
   ]]>
  </style>
 </defs>
 <g id="Capa_x0020_1">
  <metadata id="CorelCorpID_0Corel-Layer"/>
  <g id="_2856984060784">
   <path class="fil0" d="M82 194c13,-3 11,2 17,8 3,-5 4,-8 12,-6 6,1 7,3 10,9 0,-1 1,-1 1,-1 0,0 1,0 2,0 3,-1 0,-1 4,-1 3,-1 5,0 8,1 3,6 3,8 2,17 11,-1 24,3 17,17 -3,5 -9,6 -14,5 -7,-2 -5,-6 -9,-12 -10,3 -17,2 -18,-9 -12,5 -18,-1 -19,-14 -15,6 -20,-3 -13,-14zm218 -17c3,37 -27,60 -48,73 -75,46 -238,24 -241,-73 22,3 45,10 61,19 2,12 -1,16 11,20 10,4 3,-1 9,6 3,5 -1,4 8,7 4,1 6,1 9,3 1,0 1,1 1,1 17,13 11,1 21,10 13,11 13,6 24,3 9,-2 11,6 23,1 7,-2 1,-2 11,-4 19,-4 4,-6 20,-11 10,-3 12,-3 14,-15 17,-1 20,-6 18,-21 18,-7 38,-14 59,-19zm-192 -22c10,-20 38,-42 75,-31 41,13 44,19 88,2 13,10 26,28 28,45 -24,4 -42,12 -63,20 -6,-6 -10,-8 -15,-13l-42 -36c-32,-23 -46,29 -71,13zm-96 15c4,-24 18,-33 29,-47 10,2 26,9 39,12 21,5 21,0 38,-1 -5,4 -18,17 -15,23 12,14 31,2 40,-6 15,-13 24,-12 38,0 5,5 10,10 16,14 5,4 10,8 15,12 6,5 9,9 16,14 7,5 10,8 7,17 -11,12 -29,-16 -39,-20 2,12 21,15 21,31 -14,18 -20,-5 -36,-11 4,14 12,9 16,24 -14,15 -18,-5 -31,-9 2,7 14,15 11,17 -5,6 -12,2 -16,0 -2,-14 1,-21 -18,-25 0,-8 -1,-13 -8,-16 -13,-4 -6,2 -18,-5 -9,-6 -13,-1 -20,-2 -6,-1 -5,-5 -15,-3 -10,3 -7,3 -17,-3 -12,-6 -40,-13 -53,-16zm38 -51c21,-19 72,-30 107,-30 34,1 69,8 98,25l9 8c-42,25 -72,-13 -112,-7 -14,2 -15,5 -24,10 -21,11 -59,5 -78,-6zm1 144c60,40 173,36 227,-14 41,-38 39,-101 -16,-137 -58,-38 -173,-40 -225,9 -11,10 -17,17 -20,22 -27,42 -6,94 34,120z"/>
   <path class="fil1" d="M12 170c13,3 41,10 53,16 10,6 7,6 17,3 10,-2 9,2 15,3 7,1 11,-4 20,2 12,7 5,1 18,5 7,3 8,8 8,16 19,4 16,11 18,25 4,2 11,6 16,0 3,-2 -9,-10 -11,-17 13,4 17,24 31,9 -4,-15 -12,-10 -16,-24 16,6 22,29 36,11 0,-16 -19,-19 -21,-31 10,4 28,32 39,20 3,-9 0,-12 -7,-17 -7,-5 -10,-9 -16,-14 -5,-4 -10,-8 -15,-12 -6,-4 -11,-9 -16,-14 -14,-12 -23,-13 -38,0 -9,8 -28,20 -40,6 -3,-6 10,-19 15,-23 -17,1 -17,6 -38,1 -13,-3 -29,-10 -39,-12 -11,14 -25,23 -29,47z"/>
   <path class="fil2" d="M300 177c-21,5 -41,12 -59,19 2,15 -1,20 -18,21 -2,12 -4,12 -14,15 -16,5 -1,7 -20,11 -10,2 -4,2 -11,4 -12,5 -14,-3 -23,-1 -11,3 -11,8 -24,-3 -10,-9 -4,3 -21,-10 0,0 0,-1 -1,-1 -3,-2 -5,-2 -9,-3 -9,-3 -5,-2 -8,-7 -6,-7 1,-2 -9,-6 -12,-4 -9,-8 -11,-20 -16,-9 -39,-16 -61,-19 3,97 166,119 241,73 21,-13 51,-36 48,-73z"/>
   <path class="fil1" d="M108 155c25,16 39,-36 71,-13l42 36c5,5 9,7 15,13 21,-8 39,-16 63,-20 -2,-17 -15,-35 -28,-45 -44,17 -47,11 -88,-2 -37,-11 -65,11 -75,31z"/>
   <path class="fil2" d="M50 119c19,11 57,17 78,6 9,-5 10,-8 24,-10 40,-6 70,32 112,7l-9 -8c-29,-17 -64,-24 -98,-25 -35,0 -86,11 -107,30z"/>
   <path class="fil0" d="M350 175l16 0c0,-14 -7,-50 12,-50 18,0 11,37 11,50l16 0c0,-14 -7,-50 11,-50 19,0 12,36 12,50l15 0c0,-16 3,-44 -4,-55 -10,-15 -31,-15 -42,-3 -16,-14 -34,-9 -42,3 -8,13 -5,38 -5,55z"/>
   <path class="fil0" d="M435 222c20,-8 26,31 9,38 -21,8 -26,-30 -9,-38zm-10 -7l0 -27c-14,-2 -17,5 -17,18 1,33 -7,77 40,68 25,-4 25,-32 21,-48 -7,-22 -28,-24 -44,-11z"/>
   <path class="fil0" d="M735 151c-6,22 -35,12 -26,-18 6,-19 33,-9 26,18zm-1 -34c-8,-5 -9,-10 -23,-7 -27,4 -31,54 -7,64 9,3 19,3 28,1 9,-3 15,-9 18,-18 2,-8 2,-58 1,-68 -23,2 -14,9 -17,28z"/>
   <path class="fil0" d="M532 234c2,-9 5,-14 15,-14 10,0 12,5 14,14l-29 0zm45 19c-29,1 -11,6 -27,8 -13,2 -17,-5 -18,-16l47 0c-1,-21 -7,-35 -27,-38 -19,-3 -34,10 -37,26 -4,19 6,36 20,40 22,7 37,-3 42,-20z"/>
   <path class="fil0" d="M466 136c3,-17 26,-19 28,0l-28 0zm45 21c-31,2 -15,4 -29,5 -13,1 -15,-4 -17,-15l46 0c8,-46 -51,-51 -61,-15 -13,49 52,59 61,25z"/>
   <path class="fil0" d="M775 151c-7,-32 25,-35 29,-16 7,33 -25,34 -29,16zm36 -36c-14,-13 -55,-10 -54,29 1,38 40,37 53,26 16,-13 16,-40 1,-55z"/>
   <path class="fil0" d="M667 145c1,6 0,12 -4,16 -3,3 -13,6 -17,1 -10,-12 15,-16 21,-17zm-38 -14l15 0c11,-14 24,-12 23,2 -18,5 -46,1 -39,30 5,19 40,15 50,4 7,-7 12,-47 -3,-54 -7,-5 -20,-5 -29,-3 -12,3 -14,9 -17,21z"/>
   <path class="fil0" d="M621 151l-17 1c-6,21 -27,12 -26,-10 0,-10 3,-16 10,-18 13,-3 13,4 18,10l15 0c3,-32 -61,-37 -62,10 0,44 61,43 62,7z"/>
   <path class="fil1" d="M121 205c-3,-6 -4,-8 -10,-9 -8,-2 -9,1 -12,6 -6,-6 -4,-11 -17,-8 -7,11 -2,20 13,14 1,13 7,19 19,14 1,11 8,12 18,9 4,6 2,10 9,12 5,1 11,0 14,-5 7,-14 -6,-18 -17,-17 1,-9 1,-11 -2,-17 -3,-1 -5,-2 -8,-1 -4,0 -1,0 -4,1 -1,0 -2,0 -2,0 0,0 -1,0 -1,1z"/>
   <path class="fil0" d="M351 275l15 0c3,-19 1,-64 1,-88 -22,1 -17,17 -17,36 0,12 -1,41 1,52z"/>
   <path class="fil3" d="M476 275l17 0c0,-11 0,-26 0,-36 2,-13 9,-14 22,-14l0 -18c-47,2 -37,28 -39,68z"/>
   <path class="fil0" d="M520 175l17 1c-1,-38 -5,-50 20,-49l0 -16c-7,-3 -15,-1 -21,2 -8,3 -10,6 -13,13 -6,12 -3,34 -3,49z"/>
   <polygon class="fil0" points="378,274 395,275 395,210 387,210 378,210 "/>
   <path class="fil1" d="M466 136l28 0c-2,-19 -25,-17 -28,0z"/>
   <polygon class="fil3" points="378,202 394,202 395,187 378,187 "/>
  </g>
 </g>
</svg>
